<?xml version="1.0" encoding="utf-8"?>
<!-- Generator: Adobe Illustrator 19.0.0, SVG Export Plug-In . SVG Version: 6.00 Build 0)  -->
<svg version="1.1" id="Calque_1" xmlns="http://www.w3.org/2000/svg" xmlns:xlink="http://www.w3.org/1999/xlink" x="0px" y="0px"
	 viewBox="0 0 400 400" style="enable-background:new 0 0 400 400;" xml:space="preserve">
<style type="text/css">
	.st0{fill:#DADADA;}
	.st1{fill:#FBD7CE;}
	.st2{fill:#5C5C74;}
	.st3{fill:#FACAB8;}
	.st4{fill:#9880BA;}
</style>
<rect id="XMLID_25_" class="st0" width="400" height="400"/>
<g id="XMLID_1_">
	<g id="XMLID_35_">
		<path id="XMLID_36_" class="st1" d="M162.1,340.2c-30.5-10.7-43.4-41.7-54.6-84.8c-6.6-25.1-9.4-42.1-9.4-73.6
			c0-75.3,38.9-103.1,100.9-103.1S302.7,94.7,302.7,170c0,112.8-37,179.1-103.7,179.1"/>
	</g>
	<g id="XMLID_31_">
		<path id="XMLID_33_" class="st2" d="M198.9,351.8c-1.5,0-2.8-1.2-2.8-2.8s1.2-2.8,2.8-2.8c64.2,0,101-64.3,101-176.3
			c0-73.4-40.4-88.4-101-88.4c-32.1,0-55.6,7.4-71.8,22.5c-17.5,16.4-26.3,42.5-26.3,77.7c0,31.7,3,48.8,9.3,72.9
			c15.5,59,31.7,75.5,52.9,82.9c1.4,0.5,2.2,2.1,1.7,3.5c-0.5,1.4-2.1,2.2-3.5,1.7c-30.9-10.8-44.5-41.2-56.4-86.7
			c-6.4-24.6-9.5-41.9-9.5-74.3C95.3,110.6,129.2,76,198.9,76c55.3,0,106.5,11.4,106.5,93.9C305.4,285.5,266.6,351.8,198.9,351.8z"
			/>
	</g>
	<g id="XMLID_27_">
		<path id="XMLID_29_" class="st2" d="M200.1,252.1c-1.1,0-2.2-0.1-3.4-0.2c-7.5-1-10.7-7-10.9-7.3c-0.7-1.3-0.2-3,1.1-3.7
			c1.3-0.7,3-0.2,3.7,1.1c0.1,0.1,2.1,3.7,6.7,4.4c4.8,0.6,8.4-0.4,10-2.8c1.1-1.8,1-4.1-0.3-6.3c-4.2-6.7-11.2-29.2-9.1-37
			c0.4-1.5,1.9-2.4,3.4-2c1.5,0.4,2.4,1.9,2,3.4c-1.4,5.4,4.3,26,8.5,32.7c2.5,4,2.6,8.7,0.3,12.2
			C209.7,250.2,205.5,252.1,200.1,252.1z"/>
	</g>
	<g id="XMLID_24_">
		<path id="XMLID_26_" class="st2" d="M144.4,201.5c-0.7,0-1.4-0.2-1.9-0.7c-1.1-1-1.2-2.8-0.1-3.9c3.6-3.8,8.7-5.9,13.5-5.4
			c4,0.4,7.5,2.4,9.5,5.6c0.8,1.3,0.4,3-0.9,3.8c-1.3,0.8-3,0.4-3.8-0.9c-1.1-1.8-3-2.9-5.3-3.1c-3.2-0.3-6.5,1.1-9,3.7
			C145.8,201.2,145.1,201.5,144.4,201.5z"/>
	</g>
	<g id="XMLID_22_">
		<path id="XMLID_23_" class="st2" d="M253.5,201.5c-0.7,0-1.5-0.3-2-0.8c-2.5-2.6-6-4-9.6-3.8c-2.9,0.2-5.4,1.4-6.9,3.4
			c-0.9,1.2-2.7,1.4-3.9,0.5c-1.2-0.9-1.4-2.7-0.5-3.9c2.5-3.3,6.5-5.3,11-5.5c5.2-0.3,10.3,1.7,13.9,5.5c1.1,1.1,1,2.8-0.1,3.9
			C254.9,201.2,254.2,201.5,253.5,201.5z"/>
	</g>
	<g id="XMLID_20_">
		<path id="XMLID_21_" class="st2" d="M197.6,286.9c-7.1,0-13.1-2.5-16.1-6.9c-0.9-1.3-0.5-3,0.7-3.8c1.3-0.9,3-0.5,3.8,0.7
			c2.1,3,6.9,4.7,12.5,4.5c6.2-0.2,11.9-2.7,13.8-6c0.8-1.3,2.5-1.8,3.8-1c1.3,0.8,1.8,2.5,1,3.8c-2.9,5-10.1,8.4-18.4,8.7
			C198.3,286.9,198,286.9,197.6,286.9z"/>
	</g>
	<g id="XMLID_15_">
		<g id="XMLID_18_">
			<path id="XMLID_19_" class="st3" d="M107.4,246.9C92.9,245.6,84.7,231,86,218.6c1.3-12.5,14.1-15.5,23.8-12.7"/>
		</g>
		<g id="XMLID_16_">
			<path id="XMLID_17_" class="st2" d="M107.4,249.7c-0.1,0-0.2,0-0.2,0c-6.8-0.6-12.7-3.8-17.2-9.2c-5-6.1-7.6-14.4-6.7-22.2
				c0.6-5.4,3.1-9.8,7.4-12.7c5.2-3.5,12.9-4.4,19.9-2.4c1.5,0.4,2.3,2,1.9,3.4c-0.4,1.5-2,2.3-3.4,1.9c-5.4-1.6-11.4-0.9-15.3,1.7
				c-2.9,2-4.6,4.9-5,8.7c-0.7,6.3,1.4,13.2,5.5,18.1c2.4,3,6.8,6.6,13.4,7.2c1.5,0.1,2.6,1.5,2.5,3
				C110,248.6,108.8,249.7,107.4,249.7z"/>
		</g>
	</g>
	<g id="XMLID_10_">
		<g id="XMLID_13_">
			<path id="XMLID_14_" class="st3" d="M293.3,246.4c14.7,1.1,24.8-13.2,25.5-25.7c0.7-12.5-11.6-17.5-21.8-16.3"/>
		</g>
		<g id="XMLID_11_">
			<path id="XMLID_12_" class="st2" d="M294.9,249.2c-0.6,0-1.2,0-1.8-0.1c-1.5-0.1-2.7-1.4-2.5-3c0.1-1.5,1.4-2.7,3-2.5
				c6.3,0.5,10.9-2.3,13.7-4.8c5.1-4.5,8.5-11.5,8.9-18.3c0.2-3.8-1-6.9-3.5-9.2c-3.4-3.2-9.4-4.9-15.2-4.2
				c-1.5,0.2-2.9-0.9-3.1-2.4c-0.2-1.5,0.9-2.9,2.4-3.1c7.5-0.9,15,1.3,19.7,5.6c3.7,3.5,5.5,8.2,5.2,13.6
				c-0.5,8.3-4.6,16.8-10.8,22.2C306.2,247.1,300.7,249.2,294.9,249.2z"/>
		</g>
	</g>
	<g id="XMLID_8_">
		<path id="XMLID_9_" class="st4" d="M129,119.3c14.2,15.5,40,36.1,99.3,40c27,1.8,44.7-2.2,54.2,9c12.6,14.8,14.3,38.8,12.9,51.6
			c-0.6,5.8,20.6-19.3,20.6-19.3c-8.4-13.5,9-43.2,3.9-83.2c-2.1-16.6-36.8-53.5-85.1-65.8c-60.9-15.5-94.1,14.1-110.3,29
			c-12.6,11.6-28.8,5.9-41.6,32.9c-11.6,24.5,7.7,70.3,4.8,84.5c-1.3,6.4,4.8,4.8,17.5,20.6c5.2,6.4,5.7-19.3,7-34.8
			S129,119.3,129,119.3z"/>
	</g>
	<g id="XMLID_4_">
		<path id="XMLID_5_" class="st2" d="M295.8,223.5c-0.9,0-1.8-0.4-2.4-1c-0.5-0.5-1-1.4-0.8-2.9c1.2-10.7,0.2-34.8-12.3-49.5
			c-6.1-7.2-16.5-7.3-32.3-7.5c-5.9-0.1-12.6-0.1-20-0.6c-56.4-3.7-82.9-22.3-97.9-37.4C126.4,137,116,171.7,115,184
			c-0.2,2.7-0.4,5.6-0.6,8.7c-1.5,22-2.5,29.7-7.6,29.7c0,0,0,0,0,0c-1.3,0-2.6-0.7-3.7-2.1c-5.7-7.1-10-10.6-12.9-12.9
			c-3.6-2.9-6.1-4.9-5.1-10c0.9-4.7-1.1-14.5-3.3-24.9c-4-19.6-9.1-43.9-1.4-60.2c8.7-18.4,19.3-22.6,28.6-26.2
			c4.9-1.9,9.5-3.7,13.6-7.5c12-11.1,36.9-34.1,79.2-34.1c10.7,0,22,1.5,33.6,4.4c21.8,5.5,43.5,16.8,61,31.8
			c14.9,12.8,25,26.7,26.2,36.3c2.7,21.2-0.7,39.3-3.5,53.9c-2.4,12.6-4.3,22.6-0.8,28.2c0.6,1,0.5,2.3-0.2,3.2
			C300.2,223.5,297,223.5,295.8,223.5z M201.8,50c-40.1,0-64,22-75.4,32.6c-4.8,4.5-10.2,6.6-15.3,8.6c-9.2,3.6-17.9,7-25.6,23.5
			c-6.9,14.6-2.1,37.9,1.8,56.7c2.5,11.9,4.4,21.3,3.3,27.1c-0.3,1.7-0.4,1.8,3.2,4.6c2.9,2.3,7.1,5.7,12.7,12.4
			c1.3-4.6,2.1-16,2.5-23.3c0.2-3.1,0.4-6.1,0.6-8.7c1.3-15.6,16.2-63.1,16.9-65.1c0.3-0.9,1.1-1.6,2-1.9c1-0.2,2,0.1,2.6,0.8
			c13.7,14.9,38.7,35.3,97.4,39.1c7.2,0.5,13.8,0.5,19.7,0.6c16.6,0.2,28.7,0.3,36.4,9.4c12.1,14.2,14.5,35.7,13.9,49
			c3.6-3.4,9.2-9.5,14.2-15.3c-3.3-7.4-1.4-17.6,1-30.3c2.7-14.2,6-31.9,3.4-52.2c-1.9-15-35.8-51.4-83-63.4
			C222.9,51.4,212.1,50,201.8,50z"/>
	</g>
	<g id="XMLID_2_">
		<path id="XMLID_3_" class="st2" d="M137.6,104.6c0,0,0.6,0.4,1.6,1.3c0.5,0.4,1.1,0.9,1.7,1.5c0.6,0.6,1.5,1.2,2.3,1.9
			c0.8,0.7,1.6,1.4,2.6,2.2c1,0.7,1.9,1.5,2.9,2.3c1,0.9,2.1,1.6,3.1,2.5c1.1,0.8,2.1,1.8,3.3,2.5c1.1,0.8,2.2,1.6,3.3,2.4
			c1.1,0.8,2.2,1.5,3.3,2.2c1.1,0.7,2.1,1.5,3.1,2.1c1,0.6,2,1.2,2.9,1.8c0.9,0.6,1.7,1.1,2.5,1.5c0.8,0.4,1.4,0.8,2,1.2
			c1.1,0.7,1.7,1.1,1.7,1.1s-0.7,0-2-0.1c-0.6-0.1-1.4-0.1-2.3-0.2c-0.9-0.1-1.9-0.2-3-0.5c-1.1-0.3-2.2-0.6-3.4-1
			c-1.2-0.4-2.4-0.9-3.7-1.5c-1.2-0.6-2.6-1.2-3.8-2c-1.2-0.8-2.4-1.6-3.7-2.5c-1.2-0.8-2.3-1.9-3.4-2.8c-1.1-1-2.2-1.9-3-3
			c-0.9-1-1.8-2.1-2.6-3c-0.8-1-1.4-2.1-2-3c-0.6-1-1.2-1.8-1.5-2.6c-0.4-0.8-0.7-1.5-0.9-2.1C137.8,105.3,137.6,104.6,137.6,104.6z
			"/>
	</g>
</g>
</svg>
