<?xml version="1.0"?>
<svg xmlns="http://www.w3.org/2000/svg" xmlns:xlink="http://www.w3.org/1999/xlink" xmlns:svgjs="http://svgjs.com/svgjs" version="1.1" width="512" height="512" x="0" y="0" viewBox="0 0 286.614 286.614" style="enable-background:new 0 0 512 512" xml:space="preserve" class=""><g>
<g xmlns="http://www.w3.org/2000/svg">
	<path d="M270.126,105.055H146.394l23.487-18.548c7.147-5.643,8.364-16.011,2.721-23.156c-5.643-7.146-16.012-8.365-23.156-2.721   c0,0-40.819,33.689-60.28,47.603c-13.14,9.395-25.402,20.959-25.402,38.096v39.537c0,24.077,19.588,43.666,43.665,43.666   c17.677,0,61.369,0,77.789,0c9.106,0,16.487-7.382,16.487-16.487c0-5.927-3.138-11.108-7.833-14.014h5.359   c9.105,0,16.487-7.382,16.487-16.487c0-5.927-3.138-11.108-7.833-14.014h3.71c9.105,0,16.487-7.382,16.487-16.487   c0-5.927-3.138-11.108-7.832-14.014h49.874c9.105,0,16.487-7.382,16.487-16.487S279.232,105.055,270.126,105.055z" fill="#ffffff" data-original="#000000" style="" class=""/>
	<path d="M37.885,110.781H9.282c-5.126,0-9.282,4.156-9.282,9.282V220.25c0,5.126,4.156,9.282,9.282,9.282h28.603   c5.126,0,9.282-4.156,9.282-9.282V120.063C47.167,114.936,43.011,110.781,37.885,110.781z" fill="#ffffff" data-original="#000000" style="" class=""/>
</g>
<g xmlns="http://www.w3.org/2000/svg">
</g>
<g xmlns="http://www.w3.org/2000/svg">
</g>
<g xmlns="http://www.w3.org/2000/svg">
</g>
<g xmlns="http://www.w3.org/2000/svg">
</g>
<g xmlns="http://www.w3.org/2000/svg">
</g>
<g xmlns="http://www.w3.org/2000/svg">
</g>
<g xmlns="http://www.w3.org/2000/svg">
</g>
<g xmlns="http://www.w3.org/2000/svg">
</g>
<g xmlns="http://www.w3.org/2000/svg">
</g>
<g xmlns="http://www.w3.org/2000/svg">
</g>
<g xmlns="http://www.w3.org/2000/svg">
</g>
<g xmlns="http://www.w3.org/2000/svg">
</g>
<g xmlns="http://www.w3.org/2000/svg">
</g>
<g xmlns="http://www.w3.org/2000/svg">
</g>
<g xmlns="http://www.w3.org/2000/svg">
</g>
</g></svg>
