<?xml version="1.0" encoding="utf-8"?>
<!-- Generator: Adobe Illustrator 19.0.0, SVG Export Plug-In . SVG Version: 6.00 Build 0)  -->
<svg version="1.1" id="Layer_1" xmlns="http://www.w3.org/2000/svg" xmlns:xlink="http://www.w3.org/1999/xlink" x="0px" y="0px"
	 viewBox="0 0 1080 810" style="enable-background:new 0 0 1080 810;" xml:space="preserve">
<style type="text/css">
	.st0{fill:#242033;}
	.st1{fill:#699F63;}
	.st2{fill-rule:evenodd;clip-rule:evenodd;fill:#FFFFFF;}
	.st3{fill-rule:evenodd;clip-rule:evenodd;fill:#699F63;}
	.st4{clip-path:url(#XMLID_3_);}
	.st5{fill:none;}
	.st6{fill:url(#SVGID_1_);}
	.st7{fill:url(#SVGID_2_);}
	.st8{fill:url(#SVGID_3_);}
	.st9{fill:url(#SVGID_4_);}
	.st10{fill:url(#SVGID_5_);}
	.st11{fill:url(#SVGID_6_);}
</style>
<rect class="st0" width="1080" height="810"/>
<g>
	<g>
		<path class="st1" d="M537.4,435c-1.5,0-3-0.4-4.3-1.2l-13.8-8.2c-2.1-1.2-1.1-1.6-0.4-1.8c2.7-1,3.3-1.2,6.2-2.8
			c0.3-0.2,0.7-0.1,1,0.1l10.6,6.3c0.4,0.2,0.9,0.2,1.3,0l41.3-23.8c0.4-0.2,0.6-0.7,0.6-1.1v-47.6c0-0.5-0.2-0.9-0.6-1.1L538,329.9
			c-0.4-0.2-0.9-0.2-1.3,0l-41.3,23.8c-0.4,0.2-0.7,0.7-0.7,1.1v47.6c0,0.5,0.3,0.9,0.7,1.1l11.3,6.5c6.1,3.1,9.9-0.5,9.9-4.2v-47
			c0-0.7,0.5-1.2,1.2-1.2h5.2c0.7,0,1.2,0.5,1.2,1.2v47c0,8.2-4.5,12.9-12.2,12.9c-2.4,0-4.3,0-9.5-2.6l-10.8-6.2
			c-2.7-1.5-4.3-4.4-4.3-7.5v-47.6c0-3.1,1.7-6,4.3-7.5l41.3-23.9c2.6-1.5,6.1-1.5,8.7,0l41.3,23.9c2.7,1.5,4.3,4.4,4.3,7.5v47.6
			c0,3.1-1.7,6-4.3,7.5l-41.3,23.8C540.4,434.6,538.9,435,537.4,435z"/>
		<path class="st1" d="M550.1,402.2c-18.1,0-21.8-8.3-21.8-15.2c0-0.7,0.5-1.2,1.2-1.2h5.3c0.6,0,1.1,0.4,1.2,1
			c0.8,5.4,3.2,8.2,14.1,8.2c8.7,0,12.4-2,12.4-6.6c0-2.7-1-4.6-14.6-6c-11.3-1.1-18.3-3.6-18.3-12.6c0-8.3,7-13.3,18.8-13.3
			c13.2,0,19.8,4.6,20.6,14.4c0,0.3-0.1,0.7-0.3,0.9c-0.2,0.2-0.5,0.4-0.9,0.4h-5.4c-0.6,0-1-0.4-1.2-0.9c-1.3-5.7-4.4-7.5-12.9-7.5
			c-9.5,0-10.6,3.3-10.6,5.8c0,3,1.3,3.9,14.1,5.6c12.7,1.7,18.7,4.1,18.7,13C570.7,397,563.2,402.2,550.1,402.2z"/>
	</g>
	<g>
		<path class="st1" d="M609.7,352.2c0,4.4-3.6,8-8,8c-4.3,0-8-3.5-8-8c0-4.5,3.7-8,8-8C606,344.2,609.7,347.7,609.7,352.2z
			 M595,352.2c0,3.7,3,6.7,6.7,6.7c3.7,0,6.7-3.1,6.7-6.7c0-3.7-3-6.7-6.7-6.7C598.1,345.5,595,348.4,595,352.2z M598.7,347.7h3.1
			c1.1,0,3.1,0,3.1,2.4c0,1.6-1.1,2-1.7,2.2c1.2,0.1,1.3,0.9,1.5,2c0.1,0.7,0.2,1.9,0.5,2.4h-1.9c0-0.4-0.3-2.7-0.3-2.8
			c-0.1-0.5-0.3-0.8-0.9-0.8h-1.6v3.6h-1.7V347.7z M600.4,351.6h1.4c1.1,0,1.3-0.8,1.3-1.3c0-1.2-0.8-1.2-1.3-1.2h-1.4V351.6z"/>
	</g>
	<path class="st2" d="M409.5,248.6c0-1.9-1-3.7-2.6-4.6l-43.8-25.2c-0.7-0.4-1.6-0.7-2.4-0.7c-0.1,0-0.4,0-0.5,0
		c-0.8,0-1.7,0.3-2.4,0.7L314.1,244c-1.6,0.9-2.6,2.7-2.6,4.6l0.1,67.8c0,0.9,0.5,1.8,1.3,2.3c0.8,0.5,1.8,0.5,2.6,0l26-14.9
		c1.6-1,2.6-2.7,2.6-4.6v-31.7c0-1.9,1-3.6,2.6-4.6l11.1-6.4c0.8-0.5,1.7-0.7,2.6-0.7c0.9,0,1.8,0.2,2.6,0.7l11.1,6.4
		c1.6,0.9,2.6,2.7,2.6,4.6v31.7c0,1.9,1,3.6,2.6,4.6l26,14.9c0.8,0.5,1.8,0.5,2.6,0c0.8-0.5,1.3-1.3,1.3-2.3L409.5,248.6z"/>
	<path class="st2" d="M620.1,155.3c-0.8-0.5-1.8-0.4-2.6,0c-0.8,0.5-1.3,1.3-1.3,2.3v67.2c0,0.7-0.4,1.3-0.9,1.6
		c-0.6,0.3-1.3,0.3-1.9,0l-11-6.3c-1.6-0.9-3.6-0.9-5.3,0l-43.8,25.3c-1.6,0.9-2.6,2.7-2.6,4.6v50.5c0,1.9,1,3.6,2.6,4.6l43.8,25.3
		c1.6,0.9,3.7,0.9,5.3,0l43.8-25.3c1.6-0.9,2.6-2.7,2.6-4.6v-126c0-1.9-1-3.7-2.7-4.6L620.1,155.3z M616.1,283.9
		c0,0.5-0.3,0.9-0.7,1.1l-15,8.7c-0.4,0.2-0.9,0.2-1.3,0l-15-8.7c-0.4-0.2-0.7-0.7-0.7-1.1v-17.4c0-0.5,0.3-0.9,0.7-1.1l15-8.7
		c0.4-0.2,0.9-0.2,1.3,0l15,8.7c0.4,0.2,0.7,0.7,0.7,1.1V283.9z"/>
	<g>
		<path class="st2" d="M765.9,266.1c1.6-0.9,2.6-2.7,2.6-4.6v-12.2c0-1.9-1-3.6-2.6-4.6l-43.5-25.3c-1.6-1-3.7-1-5.3,0l-43.8,25.3
			c-1.6,0.9-2.6,2.7-2.6,4.6v50.5c0,1.9,1,3.7,2.7,4.6l43.5,24.8c1.6,0.9,3.6,0.9,5.2,0l26.3-14.6c0.8-0.5,1.4-1.3,1.4-2.3
			c0-1-0.5-1.8-1.3-2.3l-44-25.3c-0.8-0.5-1.3-1.3-1.3-2.3v-15.8c0-0.9,0.5-1.8,1.3-2.3l13.7-7.9c0.8-0.5,1.8-0.5,2.6,0l13.7,7.9
			c0.8,0.5,1.3,1.3,1.3,2.3V279c0,0.9,0.5,1.8,1.3,2.3c0.8,0.5,1.8,0.5,2.6,0L765.9,266.1z"/>
		<path class="st3" d="M719.1,263.7c0.3-0.2,0.7-0.2,1,0l8.4,4.8c0.3,0.2,0.5,0.5,0.5,0.9v9.7c0,0.4-0.2,0.7-0.5,0.9l-8.4,4.8
			c-0.3,0.2-0.7,0.2-1,0l-8.4-4.8c-0.3-0.2-0.5-0.5-0.5-0.9v-9.7c0-0.4,0.2-0.7,0.5-0.9L719.1,263.7z"/>
	</g>
	<g>
		<defs>
			<path id="XMLID_143_" d="M482.8,219.7c-1.6-0.9-3.6-0.9-5.3,0L434,244.8c-1.6,0.9-2.6,2.7-2.6,4.6v50.3c0,1.9,1,3.6,2.6,4.6
				l43.5,25.1c1.6,0.9,3.6,0.9,5.3,0l43.5-25.1c1.6-0.9,2.6-2.7,2.6-4.6v-50.3c0-1.9-1-3.6-2.6-4.6L482.8,219.7z"/>
		</defs>
		<linearGradient id="XMLID_2_" gradientUnits="userSpaceOnUse" x1="497.8491" y1="238.4062" x2="458.5139" y2="318.65">
			<stop  offset="0" style="stop-color:#41873F"/>
			<stop  offset="0.3288" style="stop-color:#418B3D"/>
			<stop  offset="0.6352" style="stop-color:#419637"/>
			<stop  offset="0.9319" style="stop-color:#3FA92D"/>
			<stop  offset="1" style="stop-color:#3FAE2A"/>
		</linearGradient>
		<use xlink:href="#XMLID_143_"  style="overflow:visible;fill-rule:evenodd;clip-rule:evenodd;fill:url(#XMLID_2_);"/>
		<clipPath id="XMLID_3_">
			<use xlink:href="#XMLID_143_"  style="overflow:visible;"/>
		</clipPath>
		<g class="st4">
			<path class="st5" d="M477.4,219.7l-43.6,25.1c-1.6,0.9-2.8,2.7-2.8,4.6v50.3c0,1.2,0.5,2.4,1.4,3.3l49-83.9
				C480.1,218.8,478.6,219,477.4,219.7z"/>
			<path class="st5" d="M481.6,329.9c0.4-0.1,0.8-0.3,1.2-0.5l44-25.1c1.6-0.9,3.2-2.7,3.2-4.6v-50.3c0-1.4-1-2.7-2-3.7L481.6,329.9
				z"/>
			<linearGradient id="SVGID_1_" gradientUnits="userSpaceOnUse" x1="473.5193" y1="280.4013" x2="583.8909" y2="198.8528">
				<stop  offset="0.1376" style="stop-color:#41873F"/>
				<stop  offset="0.4032" style="stop-color:#54A044"/>
				<stop  offset="0.7136" style="stop-color:#66B848"/>
				<stop  offset="0.9081" style="stop-color:#6CC04A"/>
			</linearGradient>
			<path class="st6" d="M526.4,244.8l-43.7-25.1c-0.4-0.2-0.9-0.4-1.4-0.5l-49,83.9c0.4,0.5,0.9,0.9,1.5,1.2l43.7,25.1
				c1.2,0.7,2.7,0.9,4.1,0.5l46-84.2C527.2,245.4,526.8,245.1,526.4,244.8z"/>
		</g>
		<g class="st4">
			<path class="st5" d="M530,299.7v-50.3c0-1.9-1.6-3.6-3.2-4.6l-43.9-25.1c-0.5-0.3-1.2-0.5-1.7-0.6l48.2,81.8
				C529.6,300.5,530,300.1,530,299.7z"/>
			<path class="st5" d="M433.8,244.8c-1.6,0.9-2.8,2.7-2.8,4.6v50.3c0,1.9,1.2,3.6,2.8,4.6l43.7,25.1c1,0.6,2.2,0.8,3.4,0.7
				l-46.8-85.4L433.8,244.8z"/>
			<linearGradient id="SVGID_2_" gradientUnits="userSpaceOnUse" x1="429.8124" y1="210.6289" x2="530.4805" y2="210.6289">
				<stop  offset="9.191646e-002" style="stop-color:#6CC04A"/>
				<stop  offset="0.2864" style="stop-color:#66B848"/>
				<stop  offset="0.5968" style="stop-color:#54A044"/>
				<stop  offset="0.8624" style="stop-color:#41873F"/>
			</linearGradient>
			<polygon class="st7" points="476.1,210.5 475.5,210.8 476.3,210.8 			"/>
			<linearGradient id="SVGID_3_" gradientUnits="userSpaceOnUse" x1="429.8124" y1="274.5091" x2="530.4805" y2="274.5091">
				<stop  offset="9.191646e-002" style="stop-color:#6CC04A"/>
				<stop  offset="0.2864" style="stop-color:#66B848"/>
				<stop  offset="0.5968" style="stop-color:#54A044"/>
				<stop  offset="0.8624" style="stop-color:#41873F"/>
			</linearGradient>
			<path class="st8" d="M526.4,304.2c1.3-0.7,2.2-2,2.6-3.3l-47.9-81.8c-1.2-0.2-2.6-0.1-3.7,0.6l-43.4,25l46.9,85.4
				c0.7-0.1,1.3-0.3,1.9-0.7L526.4,304.2z"/>
			<linearGradient id="SVGID_4_" gradientUnits="userSpaceOnUse" x1="429.8124" y1="303.2478" x2="530.4805" y2="303.2478">
				<stop  offset="9.191646e-002" style="stop-color:#6CC04A"/>
				<stop  offset="0.2864" style="stop-color:#66B848"/>
				<stop  offset="0.5968" style="stop-color:#54A044"/>
				<stop  offset="0.8624" style="stop-color:#41873F"/>
			</linearGradient>
			<polygon class="st9" points="530.5,303.4 530.2,302.9 530.2,303.6 			"/>
			<linearGradient id="SVGID_5_" gradientUnits="userSpaceOnUse" x1="428.9744" y1="316.2369" x2="531.2933" y2="316.2369">
				<stop  offset="9.191646e-002" style="stop-color:#6CC04A"/>
				<stop  offset="0.2864" style="stop-color:#66B848"/>
				<stop  offset="0.5968" style="stop-color:#54A044"/>
				<stop  offset="0.8624" style="stop-color:#41873F"/>
			</linearGradient>
			<path class="st10" d="M526.4,304.2l-43.6,25.1c-0.6,0.3-1.3,0.6-1.9,0.7l1.3,1.6l48.8-28v-0.7l-1.6-2
				C529,302.3,527.7,303.5,526.4,304.2z"/>
			<linearGradient id="SVGID_6_" gradientUnits="userSpaceOnUse" x1="545.5507" y1="236.0272" x2="483.465" y2="362.6819">
				<stop  offset="0" style="stop-color:#41873F"/>
				<stop  offset="0.3288" style="stop-color:#418B3D"/>
				<stop  offset="0.6352" style="stop-color:#419637"/>
				<stop  offset="0.9319" style="stop-color:#3FA92D"/>
				<stop  offset="1" style="stop-color:#3FAE2A"/>
			</linearGradient>
			<path class="st11" d="M526.4,304.2l-43.6,25.1c-0.6,0.3-1.3,0.6-1.9,0.7l1.3,1.6l48.8-28v-0.7l-1.6-2
				C529,302.3,527.7,303.5,526.4,304.2z"/>
		</g>
	</g>
</g>
</svg>
