<svg id="Capa_1" enable-background="new 0 0 512 512" height="512" viewBox="0 0 512 512" width="512" xmlns="http://www.w3.org/2000/svg"><g><path d="m157.585 354.415-31.82-31.82-100.155 100.155 31.82 31.82 31.82 31.82 100.155-100.155z" fill="#e2dff4"/><path d="m52.597 397.902h141.641v45h-141.641z" fill="#bebcdd" transform="matrix(.707 -.707 .707 .707 -261.121 210.402)"/><path d="m507.603 4.397c-5.863-5.863-15.351-5.863-21.213 0l-84.853 84.853c-5.863 5.863-5.863 15.351 0 21.213 5.863 5.863 15.351 5.863 21.213 0l84.853-84.853c5.863-5.862 5.863-15.35 0-21.213z" fill="#f3f5f9"/><path d="m422.75 110.463 84.853-84.853c5.863-5.863 5.863-15.351 0-21.213l-106.066 106.066c5.863 5.863 15.351 5.863 21.213 0z" fill="#e2dff4"/><path d="m422.75 89.25c-17.546-17.546-46.093-17.546-63.64 0l-10.606 10.75 10.607 31.676 10.607 10.607 10.607 10.607 31.675 10.606 10.75-10.607c17.547-17.546 17.547-46.093 0-63.639z" fill="#e2dff4"/><path d="m412 163.496 10.75-10.607c17.546-17.546 17.546-46.093 0-63.64l-53.033 53.033 10.607 10.607z" fill="#bebcdd"/><path d="m407.606 210.317c2.813-2.813 4.396-6.63 4.394-10.609v-36.212l-31.676-31.82-31.82-31.676h-36.212c-3.979-.001-7.646 1.287-17.765 11.407l-158.155 158.155 13.509 34.723 28.917 28.917 31.82 31.82 31.82 10.607 42.426-42.426-10.607-31.82 31.82 10.607 21.213-21.213-10.607-31.82 31.82 10.607 21.213-21.213-10.607-31.82 31.82 10.607z" fill="#ff6b6b"/><path d="m242.438 375.628 42.426-42.426-10.607-31.82 31.82 10.607 21.213-21.213-10.607-31.82 31.82 10.607 21.213-21.213-10.607-31.82 31.82 10.607 16.675-16.819c2.813-2.813 4.396-6.63 4.394-10.609v-36.212l-31.676-31.82-201.524 201.525 31.82 31.82z" fill="#e62e77"/><g fill="#cc0050"><path d="m253.045 280.169c-5.863 5.863-5.863 15.351 0 21.213l31.82 31.82 21.213-21.213-31.82-31.82c-5.863-5.863-15.351-5.863-21.213 0z"/><path d="m295.471 237.742c-5.863 5.863-5.863 15.351 0 21.213l31.82 31.82 21.213-21.213-31.82-31.82c-5.862-5.862-15.35-5.862-21.213 0z"/><path d="m337.897 195.316c-5.863 5.863-5.863 15.351 0 21.213l31.82 31.82 21.213-21.213-31.82-31.82c-5.862-5.863-15.35-5.863-21.213 0z"/></g><path d="m110.463 486.39-42.426-42.426-42.427-42.427c-5.863-5.863-15.351-5.863-21.213 0-5.863 5.863-5.863 15.351 0 21.213l42.426 42.426 42.426 42.426c5.863 5.863 15.351 5.863 21.213 0 5.864-5.862 5.864-15.35.001-21.212z" fill="#f3f5f9"/><path d="m110.463 507.603c5.863-5.863 5.863-15.351 0-21.213l-42.426-42.426-21.213 21.213 42.426 42.426c5.862 5.863 15.35 5.863 21.213 0z" fill="#e2dff4"/><path d="m231.325 406.965c-5.925-5.412-5.167-15.057.506-20.73l10.607-10.607-53.033-53.033-53.033-53.033-10.61 10.611c-5.674 5.674-15.314 6.427-20.726.502-5.811-6.365-15.669-6.533-21.696-.506-5.863 5.863-5.863 15.351 0 21.213l63.64 63.64 63.64 63.64c5.863 5.863 15.351 5.863 21.213 0 6.025-6.028 5.857-15.886-.508-21.697z" fill="#f3f5f9"/><path d="m231.831 428.661c6.027-6.027 5.859-15.885-.506-21.696-5.925-5.412-5.167-15.057.506-20.73l10.607-10.607-53.033-53.033-42.426 42.426 63.64 63.64c5.862 5.863 15.35 5.863 21.212 0z" fill="#e2dff4"/></g></svg>