<svg id="Capa_1" enable-background="new 0 0 64 64" height="512" viewBox="0 0 64 64" width="512" xmlns="http://www.w3.org/2000/svg"><g id="Flat"><path d="m13.393 22.393h4v10h-4z" fill="#870e4f" transform="matrix(.707 -.707 .707 .707 -14.861 18.908)"/><path d="m34.607 43.606h4v10h-4z" fill="#870e4f" transform="matrix(.707 -.707 .707 .707 -23.648 40.122)"/><path d="m10.394 46.607h10v4h-10z" fill="#870e4f" transform="matrix(.707 -.707 .707 .707 -29.862 25.122)"/><circle cx="25.896" cy="37.896" fill="#ad1456" r="13"/><g fill="#870e4f"><path d="m24 49h4v9h-4z"/><ellipse cx="26" cy="58" rx="4" ry="3"/><path d="m24 18h4v10h-4z"/><ellipse cx="26" cy="18" rx="4" ry="3"/><ellipse cx="40.142" cy="52.142" rx="4" ry="3" transform="matrix(.707 -.707 .707 .707 -25.113 43.657)"/><ellipse cx="11.858" cy="23.858" rx="4" ry="3" transform="matrix(.707 -.707 .707 .707 -13.397 15.373)"/><path d="m36 36h10v4h-10z"/><ellipse cx="46" cy="38" rx="3" ry="4"/><path d="m6 36h10v4h-10z"/><ellipse cx="6" cy="38" rx="3" ry="4"/><ellipse cx="11.858" cy="52.142" rx="3" ry="4" transform="matrix(.707 -.707 .707 .707 -33.397 23.657)"/><circle cx="22" cy="34" r="2"/><ellipse cx="26" cy="43" rx="5" ry="2"/></g><path d="m32.893 16.257h21.213v8.485h-21.213z" fill="#1f88e5" transform="matrix(.707 -.707 .707 .707 -1.755 36.763)"/><path d="m49.964 7.673h7.071v5.657h-7.071z" fill="#1f88e5" transform="matrix(.707 -.707 .707 .707 8.244 40.906)"/><path d="m26 39c-.552 0-1-.447-1.001-.999 0-.265.105-.52.293-.708l7-7c.397-.384 1.03-.373 1.414.025.374.388.374 1.002 0 1.389l-7 7c-.187.187-.441.293-.706.293z" fill="#253238"/><path d="m34 32-2-2 2-4 4 4z" fill="#1665c0"/><path d="m55 18c-.265 0-.52-.105-.707-.293l-8-8c-.384-.397-.373-1.03.025-1.414.388-.374 1.002-.374 1.389 0l8 8c.39.391.39 1.024 0 1.414-.188.188-.442.293-.707.293z" fill="#1665c0"/><path d="m37.91 24.19c-.19.185-.445.289-.71.29-.265-.003-.519-.107-.71-.29 0 0-1.302-1.311-1.33-1.35l1.4-1.4c.039.028 1.35 1.33 1.35 1.33.391.393.392 1.028 0 1.42z" fill="#1665c0"/><path d="m40.81 21.29c-.39.388-1.02.388-1.41 0 0 0-1.313-1.314-1.34-1.35l1.4-1.4c.041.024 1.35 1.33 1.35 1.33.388.393.387 1.026 0 1.42z" fill="#1665c0"/><path d="m43.71 18.39c-.39.388-1.02.388-1.41 0 0 0-1.313-1.314-1.34-1.35l1.4-1.4c.041.024 1.35 1.33 1.35 1.33.391.393.392 1.028 0 1.42z" fill="#1665c0"/><path d="m46.61 15.48c-.374.389-.993.402-1.383.027-.009-.009-.018-.018-.027-.027 0 0-1.306-1.309-1.33-1.35l1.39-1.39c.041.024 1.35 1.33 1.35 1.33.388.39.388 1.02 0 1.41z" fill="#1665c0"/><path d="m60 13c-.265 0-.52-.105-.707-.293l-8-8c-.384-.397-.373-1.03.025-1.414.388-.374 1.002-.374 1.389 0l8 8c.39.391.39 1.024 0 1.414-.188.188-.442.293-.707.293z" fill="#1665c0"/></g></svg>