<?xml version="1.0" encoding="utf-8"?>
<!-- Generator: Adobe Illustrator 19.0.0, SVG Export Plug-In . SVG Version: 6.00 Build 0)  -->
<svg version="1.1" id="Calque_1" xmlns="http://www.w3.org/2000/svg" xmlns:xlink="http://www.w3.org/1999/xlink" x="0px" y="0px"
	 viewBox="0 0 400 400" style="enable-background:new 0 0 400 400;" xml:space="preserve">
<style type="text/css">
	.st0{fill:#DADADA;}
	.st1{fill:#FACAB8;}
	.st2{fill:#5C5C74;}
	.st3{fill:#FBD7CE;}
	.st4{fill:#70A9DC;}
</style>
<rect id="XMLID_25_" class="st0" width="400" height="400"/>
<g id="XMLID_26_">
	<g id="XMLID_71_">
		<g id="XMLID_76_">
			<path id="XMLID_24_" class="st1" d="M306.4,211.6c0,11-7.2,20-16.1,20c-8.9,0-16.1-8.9-16.1-20c0-11,7.2-16.4,16.1-16.4
				C299.2,195.2,306.4,200.5,306.4,211.6z"/>
		</g>
		<g id="XMLID_72_">
			<path id="XMLID_73_" class="st2" d="M290.3,234.1c-10.3,0-18.6-10.1-18.6-22.5c0-11.5,7.3-18.9,18.6-18.9
				c11.3,0,18.6,7.4,18.6,18.9C308.9,224,300.6,234.1,290.3,234.1z M290.3,197.7c-8.5,0-13.5,5.2-13.5,13.8
				c0,9.6,6.1,17.4,13.5,17.4s13.5-7.8,13.5-17.4C303.8,202.9,298.8,197.7,290.3,197.7z"/>
		</g>
	</g>
	<g id="XMLID_64_">
		<g id="XMLID_69_">
			<path id="XMLID_21_" class="st1" d="M125.7,211.6c0,11-7.2,20-16.1,20s-16.1-8.9-16.1-20c0-11,7.2-16.4,16.1-16.4
				S125.7,200.5,125.7,211.6z"/>
		</g>
		<g id="XMLID_65_">
			<path id="XMLID_66_" class="st2" d="M109.6,234.1C99.3,234.1,91,224,91,211.6c0-11.5,7.3-18.9,18.6-18.9s18.6,7.4,18.6,18.9
				C128.2,224,119.9,234.1,109.6,234.1z M109.6,197.7c-8.5,0-13.5,5.2-13.5,13.8c0,9.6,6.1,17.4,13.5,17.4s13.5-7.8,13.5-17.4
				C123.1,202.9,118.1,197.7,109.6,197.7z"/>
		</g>
	</g>
	<g id="XMLID_62_">
		<path id="XMLID_18_" class="st3" d="M290.9,179.5c0,107.8-37.4,154.1-91,154.1s-92.5-43.1-92.5-154.1c0-66.6,38.9-80.6,92.5-80.6
			S290.9,112.9,290.9,179.5z"/>
	</g>
	<g id="XMLID_58_">
		<path id="XMLID_59_" class="st2" d="M200,336.1c-29.3,0-52.3-12.3-68.5-36.6c-17.6-26.5-26.6-66.9-26.6-120.1
			c0-73.3,48.1-83.2,95.1-83.2c48.6,0,93.5,10.1,93.5,83.2C293.5,280.5,260.3,336.1,200,336.1z M200,101.4
			c-30.2,0-50.8,4.7-64.9,14.9c-16.9,12.2-25.1,32.8-25.1,63.2c0,125.2,48.9,151.5,90,151.5c57,0,88.4-53.8,88.4-151.5
			C288.4,114.7,253,101.4,200,101.4z"/>
	</g>
	<g id="XMLID_56_">
		<path id="XMLID_15_" class="st4" d="M198,233c36,0,44,22.4,60.8,22.4s28.3-24,28.3-24s10.6,123-85.8,123S111.9,233,111.9,233
			s4.5,22.4,25.1,22.4S159.4,233,198,233z"/>
	</g>
	<g id="XMLID_52_">
		<path id="XMLID_53_" class="st2" d="M201.3,356.9c-25.4,0-46.1-8.3-61.5-24.6c-17.7-18.7-25-44.8-28-63.4
			c-3.3-20-2.4-35.4-2.4-36.1c0.1-1.3,1.1-2.3,2.4-2.4c1.3-0.1,2.4,0.8,2.7,2c0.2,0.8,4.4,20.3,22.6,20.3c7.8,0,12.6-3.6,18.7-8.1
			c8.5-6.4,19.2-14.3,42.3-14.3c22.2,0,34.1,8.2,43.7,14.8c6.2,4.2,11.1,7.6,17,7.6c14.9,0,25.9-22.3,26-22.5c0.5-1,1.6-1.6,2.8-1.4
			c1.1,0.2,2,1.1,2.1,2.3c0.1,0.7,1.4,16.4-1.4,36.8c-2.5,18.9-9.2,45.5-26.6,64.4C246.8,348.6,226.5,356.9,201.3,356.9z
			 M114.5,245.3c0.8,19.7,5.5,58.7,28.9,83.5c14.4,15.3,33.8,23,57.8,23c23.7,0,42.8-7.7,56.7-22.8c24.6-26.8,27.1-70.5,26.9-88.8
			c-5.1,7.5-14.3,17.8-26.1,17.8c-7.6,0-13.3-3.9-19.9-8.5c-9-6.2-20.2-13.9-40.8-13.9c-21.5,0-30.9,7-39.3,13.3
			c-6.3,4.7-12.2,9.1-21.7,9.1C125.5,257.9,118.6,251.5,114.5,245.3z"/>
	</g>
	<g id="XMLID_45_">
		<g id="XMLID_50_">
			<path id="XMLID_12_" class="st1" d="M231.7,273.9c-3.8,11.9-17.1,11.7-31.7,11.7c-14.6,0-31.5,1.5-35-10.6
				c-3.9-13.6,20.4-14.9,35-14.9C214.5,260.1,235.7,261.2,231.7,273.9z"/>
		</g>
		<g id="XMLID_46_">
			<path id="XMLID_47_" class="st2" d="M191.1,288.3c-12.1,0-25.2-1-28.5-12.6c-1-3.6-0.5-6.8,1.5-9.5c4.5-5.9,15.9-8.7,35.9-8.7
				c13.5,0,27.9,0.9,33,7.8c1.3,1.8,2.6,4.9,1.2,9.3c-4.3,13.5-18.9,13.5-33.1,13.5h-1c-1.4,0-2.9,0-4.4,0
				C194.1,288.3,192.6,288.3,191.1,288.3z M200,262.7c-22.2,0-29.5,3.6-31.8,6.6c-1,1.4-1.3,3-0.7,5c2.1,7.4,10.6,8.9,23.6,8.9
				c1.5,0,3,0,4.5,0c1.5,0,3,0,4.4,0h1c15.6,0,25.3-0.7,28.2-9.9c0.8-2.6,0.2-4-0.4-4.8C224.6,262.7,206.1,262.7,200,262.7z"/>
		</g>
	</g>
	<g id="XMLID_43_">
		<path id="XMLID_9_" class="st2" d="M142.7,204.3c-0.7,0-1.4-0.3-1.9-0.8c-1-1-0.9-2.7,0.2-3.6c3.7-3.4,8.9-5.1,13.8-4.7
			c3.9,0.4,7.2,2.1,9.2,4.8c0.8,1.1,0.6,2.7-0.5,3.6c-1.1,0.8-2.7,0.6-3.6-0.5c-1.2-1.6-3.2-2.6-5.6-2.8c-3.5-0.3-7.2,0.9-9.9,3.3
			C143.9,204,143.3,204.3,142.7,204.3z"/>
	</g>
	<g id="XMLID_41_">
		<path id="XMLID_8_" class="st2" d="M255.5,204.3c-0.6,0-1.2-0.2-1.7-0.6c-2.7-2.4-6.6-3.7-10.5-3.4c-3.1,0.2-5.8,1.3-7.3,3.1
			c-0.9,1.1-2.6,1.1-3.6,0.2c-1.1-0.9-1.1-2.6-0.2-3.6c2.5-2.8,6.4-4.5,10.9-4.8c5.3-0.3,10.4,1.4,14.2,4.7c1.1,0.9,1.1,2.6,0.2,3.6
			C256.9,204,256.2,204.3,255.5,204.3z"/>
	</g>
	<g id="XMLID_39_">
		<path id="XMLID_7_" class="st4" d="M175.5,47.7c34-9.1,69.6,14,86.2,35.1c13.8,17.6,30,12.8,42.6,31.9s4.3,55.1-4.8,70.3
			c-9.1,15.2-9.1,15.2-9.1,15.2s-11.9-47.1-30.1-55.1c-18.2-8-17.7,11.2-58.2,8s-54.1-27.1-63.9-24c-9.8,3.2-8.4,20.8-16.8,38.3
			S108,200.2,108,200.2s-27-51.4-16-80.6c8.4-22.4,24-14.4,35.2-28.7S151.7,54.1,175.5,47.7z"/>
	</g>
	<g id="XMLID_35_">
		<path id="XMLID_36_" class="st2" d="M108,202.8c-0.9,0-1.8-0.5-2.3-1.4c-1.1-2.1-27.4-52.8-16.1-82.7c5.3-14,13.3-17.1,21.1-20
			c5.3-2,10.2-3.9,14.5-9.4c1.6-2.1,3.3-4.3,5-6.6c10.5-14.1,23.5-31.7,44.7-37.4c5.3-1.4,10.8-2.1,16.4-2.1
			c29.3,0,57.5,19.2,72.4,38.2c6.2,7.9,12.8,11,19.8,14.2c7.8,3.6,15.9,7.3,22.9,17.9c13.6,20.6,4.2,57.9-4.8,73l-9.1,15.2
			c-0.5,0.9-1.5,1.4-2.6,1.2c-1-0.2-1.9-0.9-2.1-1.9c-3.2-12.8-14.6-47.2-28.6-53.4c-2.7-1.2-5-1.7-7.1-1.7c-3.3,0-6.1,1.3-9.9,3.2
			c-6.3,3-15,7.2-31.4,7.2c-2.8,0-5.9-0.1-9-0.4c-25.4-2-40.5-12-50.5-18.5c-5.6-3.6-9.7-6.4-12.4-5.5c-4.6,1.5-6.2,7.8-8.4,16.5
			c-1.6,6.2-3.4,13.3-6.8,20.5c-8.2,17.2-13.2,32.3-13.2,32.4c-0.3,1-1.2,1.7-2.2,1.7C108.1,202.8,108.1,202.8,108,202.8z
			 M252.1,140.6c2.8,0,5.8,0.7,9.2,2.2c15.3,6.7,26,37.9,29.9,51l6-10.1c8.2-13.7,17.1-48.9,4.9-67.5c-6.2-9.4-13.2-12.6-20.7-16.1
			c-7.2-3.3-14.7-6.8-21.7-15.7C246,67,218.7,48.2,191.3,48.2c-5.2,0-10.3,0.7-15.1,2c-19.5,5.2-31.9,22-41.9,35.5
			c-1.7,2.4-3.4,4.6-5,6.7c-5.1,6.6-11.3,8.9-16.7,11c-7.3,2.8-13.7,5.2-18.1,17.1c-8.4,22.4,6.8,59.3,13.2,73.1
			c2.2-6.1,6.2-16.2,11.4-27.2c3.2-6.7,5-13.5,6.5-19.6c2.4-9.5,4.5-17.7,11.8-20.1c0.9-0.3,1.7-0.4,2.7-0.4c4.2,0,8.3,2.7,14.1,6.5
			c9.6,6.3,24.1,15.8,48.1,17.7c3,0.2,5.9,0.4,8.6,0.4c15.3,0,23-3.7,29.2-6.7C244.1,142.3,247.7,140.6,252.1,140.6z"/>
	</g>
	<g id="XMLID_33_">
		<path id="XMLID_4_" class="st2" d="M198.6,239.4c-0.9,0-1.9-0.1-2.9-0.2c-6.6-0.9-9.4-6-9.5-6.2c-0.7-1.2-0.2-2.8,1-3.5
			c1.2-0.7,2.8-0.2,3.5,1c0.1,0.1,1.8,3.1,5.7,3.6c4.1,0.5,7.3-0.3,8.5-2.4c0.9-1.4,0.7-3.2-0.3-4.9c-3.6-5.7-9.8-24.8-7.9-31.4
			c0.4-1.4,1.8-2.2,3.1-1.8c1.4,0.4,2.2,1.8,1.8,3.1c-1.2,4.5,3.8,21.7,7.3,27.3c2.2,3.4,2.3,7.3,0.4,10.4
			C207.2,237.7,203.4,239.4,198.6,239.4z"/>
	</g>
	<g id="XMLID_31_">
		<path id="XMLID_3_" class="st2" d="M198.9,278.8c-7.2,0-13.1-2.5-16.2-6.9c-0.8-1.2-0.5-2.8,0.7-3.6c1.2-0.8,2.8-0.5,3.6,0.7
			c2,3,6.5,4.7,11.9,4.7c0,0,0,0,0,0c6.2,0,12.2-2.3,14.3-5.4c0.8-1.2,2.4-1.5,3.5-0.7c1.2,0.8,1.5,2.4,0.7,3.5
			C213.9,276.4,205.6,278.8,198.9,278.8C198.9,278.8,198.9,278.8,198.9,278.8z"/>
	</g>
	<g id="XMLID_29_">
		<path id="XMLID_2_" class="st2" d="M145.7,110c0,0,0.6,0.3,1.5,1c0.5,0.3,1,0.7,1.6,1.2c0.6,0.5,1.4,0.9,2.1,1.4
			c0.8,0.5,1.5,1.1,2.4,1.7c0.9,0.6,1.8,1.2,2.7,1.8c0.9,0.7,2,1.2,3,1.9c1,0.6,2,1.3,3.1,1.9c1,0.6,2.1,1.2,3.1,1.9
			c1,0.6,2.1,1.1,3,1.7c0.5,0.3,1,0.6,1.4,0.9c0.5,0.3,1,0.5,1.4,0.8c0.9,0.5,1.8,1,2.6,1.5c0.8,0.5,1.6,0.8,2.2,1.2
			c0.7,0.3,1.3,0.7,1.8,1c1,0.6,1.5,1,1.5,1s-0.7,0.1-1.8,0c-0.6,0-1.3,0-2.1-0.1c-0.8-0.1-1.7-0.1-2.7-0.3c-1-0.2-2-0.4-3.1-0.7
			c-0.5-0.1-1.1-0.3-1.7-0.5c-0.6-0.2-1.1-0.4-1.7-0.6c-1.1-0.5-2.3-0.9-3.5-1.5c-1.1-0.6-2.3-1.3-3.4-1.9c-1.1-0.6-2.2-1.4-3.2-2.2
			c-1-0.8-2-1.5-2.9-2.4c-0.9-0.8-1.7-1.7-2.5-2.5c-0.8-0.8-1.4-1.7-2-2.5c-0.6-0.8-1.1-1.5-1.5-2.2c-0.4-0.7-0.7-1.3-0.9-1.8
			C145.9,110.6,145.7,110,145.7,110z"/>
	</g>
	<g id="XMLID_27_">
		<path id="XMLID_1_" class="st2" d="M276.8,146.4c0,0-0.3-0.3-0.8-1c-0.2-0.3-0.5-0.7-0.8-1.2c-0.3-0.5-0.6-0.9-1-1.5
			c-0.3-0.5-0.7-1.1-1-1.7c-0.4-0.6-0.8-1.2-1.1-1.8c-0.4-0.6-0.7-1.3-1.2-2c-0.4-0.7-0.8-1.4-1.2-2c-0.4-0.7-0.8-1.3-1.2-2
			c-0.4-0.7-0.8-1.3-1.1-1.9c-0.4-0.6-0.7-1.3-1.1-1.9c-0.4-0.6-0.7-1.1-1-1.7c-0.3-0.6-0.6-1.1-0.8-1.5c-0.3-0.4-0.5-0.8-0.7-1.2
			c-0.4-0.7-0.6-1.1-0.6-1.1s0.4,0.1,1.2,0.3c0.4,0.1,0.8,0.3,1.4,0.5c0.3,0.1,0.5,0.2,0.8,0.3c0.3,0.1,0.5,0.3,0.8,0.5
			c0.6,0.4,1.2,0.8,1.8,1.2c0.6,0.5,1.2,1.1,1.8,1.7c0.6,0.6,1.2,1.2,1.7,2c0.5,0.7,1,1.5,1.5,2.2c0.8,1.6,1.6,3.1,2,4.8
			c0.2,0.8,0.5,1.6,0.6,2.3c0.1,0.8,0.2,1.5,0.3,2.2c0.2,1.3,0,2.4-0.1,3.2C276.9,145.9,276.8,146.4,276.8,146.4z"/>
	</g>
</g>
</svg>
