<?xml version="1.0" encoding="utf-8"?>
<!-- Generator: Adobe Illustrator 19.0.0, SVG Export Plug-In . SVG Version: 6.00 Build 0)  -->
<svg version="1.1" id="Calque_1" xmlns="http://www.w3.org/2000/svg" xmlns:xlink="http://www.w3.org/1999/xlink" x="0px" y="0px"
	 viewBox="0 0 400 400" style="enable-background:new 0 0 400 400;" xml:space="preserve">
<style type="text/css">
	.st0{fill:#DADADA;}
	.st1{fill:#FBD7CE;}
	.st2{fill:#5C5C74;}
	.st3{fill:#FACAB8;}
	.st4{fill:#378AC7;}
</style>
<rect id="XMLID_25_" class="st0" width="400" height="400"/>
<g id="XMLID_28_">
	<g id="XMLID_81_">
		<path id="XMLID_82_" class="st1" d="M163.9,339.8c-31.5-11-44.7-43-56.4-87.4c-6.8-25.9-9.7-43.4-9.7-75.9
			c0-77.7,40.2-106.3,104.1-106.3s107,16.4,107,94.1c0,116.4-38.1,184.7-107,184.7"/>
	</g>
	<g id="XMLID_79_">
		<path id="XMLID_80_" class="st2" d="M201.9,351.8c-1.6,0-2.8-1.3-2.8-2.8s1.3-2.8,2.8-2.8c66.2,0,104.1-66.3,104.1-181.9
			c0-75.7-41.6-91.2-104.1-91.2c-33.1,0-57.3,7.6-74,23.3c-18,16.9-27.2,43.9-27.2,80.2c0,32.7,3.1,50.3,9.6,75.2
			c16,60.9,32.7,77.8,54.6,85.5c1.5,0.5,2.3,2.1,1.7,3.6c-0.5,1.5-2.1,2.3-3.6,1.7c-31.9-11.1-45.9-42.5-58.2-89.4
			c-6.6-25.3-9.8-43.3-9.8-76.6C95,103,130,67.3,201.9,67.3c57,0,109.8,11.7,109.8,96.9C311.8,283.4,271.7,351.8,201.9,351.8z"/>
	</g>
	<g id="XMLID_77_">
		<path id="XMLID_78_" class="st2" d="M203.1,248.9c-1.1,0-2.3-0.1-3.5-0.2c-7.7-1-11.1-7.2-11.2-7.5c-0.7-1.4-0.2-3.1,1.2-3.8
			c1.4-0.7,3.1-0.2,3.8,1.2c0.1,0.1,2.2,3.9,7,4.5c4.9,0.7,8.7-0.4,10.3-2.9c1.2-1.8,1-4.2-0.4-6.5c-4.3-6.9-11.6-30.2-9.4-38.2
			c0.4-1.5,2-2.4,3.5-2c1.5,0.4,2.4,2,2,3.5c-1.5,5.5,4.5,26.9,8.8,33.8c2.6,4.1,2.7,8.9,0.3,12.6
			C213,246.9,208.6,248.9,203.1,248.9z"/>
	</g>
	<g id="XMLID_74_">
		<path id="XMLID_75_" class="st2" d="M145.6,196.7c-0.7,0-1.4-0.3-1.9-0.8c-1.1-1.1-1.2-2.9-0.1-4c3.7-4,8.9-6.1,14-5.6
			c4.1,0.4,7.7,2.5,9.8,5.8c0.8,1.3,0.4,3.1-0.9,3.9c-1.3,0.8-3.1,0.5-3.9-0.9c-1.2-1.8-3.1-3-5.5-3.2c-3.3-0.3-6.7,1.1-9.3,3.8
			C147.1,196.4,146.4,196.7,145.6,196.7z"/>
	</g>
	<g id="XMLID_68_">
		<path id="XMLID_70_" class="st2" d="M258.2,196.7c-0.7,0-1.5-0.3-2.1-0.9c-2.5-2.7-6.2-4.1-9.9-3.9c-3,0.2-5.6,1.4-7.1,3.5
			c-1,1.2-2.7,1.5-4,0.5c-1.2-1-1.5-2.7-0.5-4c2.6-3.4,6.7-5.5,11.3-5.7c5.4-0.3,10.6,1.8,14.3,5.7c1.1,1.1,1,2.9-0.1,4
			C259.7,196.5,258.9,196.7,258.2,196.7z"/>
	</g>
	<g id="XMLID_63_">
		<path id="XMLID_67_" class="st2" d="M200.5,284.9c-7.4,0-13.5-2.6-16.6-7.1c-0.9-1.3-0.6-3.1,0.7-4c1.3-0.9,3.1-0.6,4,0.7
			c2.1,3.1,7,4.8,12.9,4.6c6.4-0.2,12.2-2.8,14.2-6.2c0.8-1.4,2.5-1.8,3.9-1c1.4,0.8,1.8,2.5,1,3.9c-3,5.2-10.5,8.7-18.9,9
			C201.3,284.9,200.9,284.9,200.5,284.9z"/>
	</g>
	<g id="XMLID_54_">
		<g id="XMLID_60_">
			<path id="XMLID_61_" class="st3" d="M107.5,243.6c-14.9-1.3-23.4-16.4-22.1-29.2c1.4-12.8,14.6-16,24.6-13.1"/>
		</g>
		<g id="XMLID_55_">
			<path id="XMLID_57_" class="st2" d="M107.5,246.4c-0.1,0-0.2,0-0.2,0c-7-0.6-13.1-3.9-17.7-9.5c-5.2-6.3-7.8-14.9-6.9-22.9
				c0.6-5.6,3.2-10.1,7.6-13.1c5.4-3.6,13.3-4.6,20.5-2.5c1.5,0.4,2.4,2,1.9,3.5c-0.4,1.5-2,2.4-3.5,1.9c-5.6-1.6-11.8-1-15.8,1.7
				c-3,2-4.7,5-5.1,9c-0.7,6.5,1.5,13.6,5.7,18.7c2.5,3.1,7,6.8,13.8,7.4c1.6,0.1,2.7,1.5,2.6,3.1
				C110.2,245.3,108.9,246.4,107.5,246.4z"/>
		</g>
	</g>
	<g id="XMLID_42_">
		<g id="XMLID_49_">
			<path id="XMLID_51_" class="st3" d="M299.3,243.1c15.2,1.1,25.6-13.6,26.3-26.5c0.7-12.9-12-18.1-22.5-16.8"/>
		</g>
		<g id="XMLID_44_">
			<path id="XMLID_48_" class="st2" d="M300.9,246c-0.6,0-1.2,0-1.9-0.1c-1.6-0.1-2.7-1.5-2.6-3.1c0.1-1.6,1.5-2.7,3.1-2.6
				c6.5,0.5,11.2-2.4,14.1-4.9c5.3-4.6,8.8-11.9,9.2-18.9c0.2-3.9-1-7.1-3.6-9.5c-3.6-3.3-9.7-5-15.7-4.3c-1.6,0.2-3-0.9-3.2-2.5
				c-0.2-1.6,0.9-3,2.5-3.2c7.7-0.9,15.5,1.3,20.3,5.8c3.8,3.6,5.7,8.4,5.4,14c-0.5,8.5-4.7,17.3-11.1,22.9
				C312.6,243.8,306.9,246,300.9,246z"/>
		</g>
	</g>
	<g id="XMLID_38_">
		<path id="XMLID_40_" class="st4" d="M115,204.2c-13.3,30.4,11.1,110.1,15.8,113.9c16.5,13.3-72.3-9.8-84.1-39.9
			c-17.1-43.7,36.1-174.6,77.8-197.4c13-7.1,49.3-47.5,108.2-28.5c53.9,17.4,83.5,41.8,104.4,85.4s46.1,132.3,26.6,153.7
			c-19,20.9-101.1,38.2-90.3,19c20.1-36.1,12.5-99.6,12.5-126.2c0-24.7-37.7-26.8-68.3-37c-34.2-11.4-74-26.6-74-26.6
			S127.4,175.9,115,204.2z"/>
	</g>
	<g id="XMLID_30_">
		<path id="XMLID_32_" class="st2" d="M129.6,324.8c-14.2,0-75.3-19.4-85.5-45.5c-9.7-24.7,2.4-72.3,16.9-108.6
			c21.9-55,46.5-83.7,62.3-92.3c2-1.1,5-3.3,8.4-5.9c13.9-10.5,37.2-28,70.5-28c10.3,0,20.9,1.7,31.6,5.2
			c54.2,17.5,84.9,42.7,106.1,86.9c11.3,23.7,22.6,57.4,28.6,85.8c5.4,25.2,9.3,58-2.5,71c-14.2,15.6-59,28.2-80.8,28.2c0,0,0,0,0,0
			c-7.9,0-12.7-1.6-14.6-4.9c-0.9-1.5-1.5-4.1,0.5-7.7c16-28.7,14-75.5,12.7-106.6c-0.3-7.1-0.6-13.3-0.6-18.3
			c0-16.7-20.4-21.9-44-28c-7.4-1.9-15.1-3.9-22.4-6.3c-28.6-9.5-61.5-21.8-71.3-25.5c-3.5,11.9-17.1,56.5-27.7,80.9
			c-12.5,28.6,10.5,105.4,15.1,110.6c0.9,0.7,3.8,3,2.8,5.9C134.4,324.8,130.8,324.8,129.6,324.8z M202,50.2
			c-31.4,0-53.7,16.8-67.1,26.8c-3.7,2.8-6.7,5-9.1,6.3c-18.7,10.2-42.1,45.3-59.7,89.4c-17.7,44.4-24.3,85.4-16.8,104.4
			c8.3,21.3,61.6,40.5,78.6,41.8c-4-6.1-10.7-28.7-14.5-47.3c-4.5-21.9-8.4-51.6-1-68.6c12.2-27.8,28.2-82.6,28.3-83.2
			c0.2-0.8,0.8-1.4,1.5-1.8c0.7-0.4,1.5-0.4,2.3-0.1c0.4,0.2,40.2,15.3,73.9,26.5c7.1,2.4,14.7,4.3,22,6.2
			c24.8,6.4,48.3,12.4,48.3,33.5c0,4.9,0.3,11,0.6,18c1.3,31.7,3.3,79.5-13.4,109.6c-0.5,0.9-0.7,1.7-0.5,2c0.4,0.8,3,2,9.7,2
			c0,0,0,0,0,0c22.5,0,64.5-13,76.6-26.4c17.1-18.8-4.3-103-27-150.6C313.9,95.8,285.1,72.2,231.8,55
			C221.8,51.8,211.7,50.2,202,50.2z"/>
	</g>
</g>
</svg>
